# xmcd CD database file
#
# Track frame offsets:
#	150
#	5175
#	10125
#	15075
#	20025
#	24975
#	29925
#	34875
#	39825
#	44850
#	49800
#	54750
#	59700
#	64650
#	69375
#	74100
#	78750
#	83400
#	88125
#	92850
#	97500
#	102225
#	106950
#	111600
#	117675
#	123750
#	129525
#	135300
#	139950
#	144600
#	149625
#	154350
#	159000
#	162750
#	167775
#	171525
#	176550
#	181950
#	185700
#	190725
#	195675
#	200625
#	205350
#	211200
#	215025
#	218475
#	222000
#	226950
#	231900
#	236850
#	241800
#	257625
#	272925
#
# Disc length: 3779 seconds
#
# Revision: 0
# Processed by: cddbd v1.5.2PL0 Copyright (c) Steve Scherf et al.
# Submitted via: CDex 1.70beta3
#
DISCID=140ec135
DTITLE=山口和也/リットーミュージック - ペンタトニックから前進!ブルースで覚える大人のスケール・ワーク
DYEAR=2014
DGENRE=Lesson
TTITLE0=使用する音を限定してフレーシ?ンク?しよう!
TTITLE1=チョーキンク?を駆使して弾けますか?
TTITLE2=シ?ョイントはクリアて?きていますか?
TTITLE3=定番のリックを知っていますか?
TTITLE4=マイナー・ヘ?ンタ・ホ?シ?ションて?弾けますか?1
TTITLE5=マイナー・ヘ?ンタ・ホ?シ?ションて?弾けますか?2
TTITLE6=フ?ルー・ノート(♭5)は使えますか?
TTITLE7=メシ?ャー・ヘ?ンタ・ホ?シ?ションて?弾けますか?1
TTITLE8=メシ?ャー・ヘ?ンタ・ホ?シ?ションて?弾けますか?2
TTITLE9=マイナー・ヘ?ンタの拡張ホ?シ?ションて?弾けますか?1
TTITLE10=マイナー・ヘ?ンタの拡張ホ?シ?ションて?弾けますか?2
TTITLE11=マイナー&メシ?ャー・ヘ?ンタを混せ?て弾けますか?1
TTITLE12=マイナー&メシ?ャー・ヘ?ンタを混せ?て弾けますか?2
TTITLE13=メシ?ャー・スケールて?弾けますか?1
TTITLE14=メシ?ャー・スケールて?弾けますか?2
TTITLE15=マイナー・スケールて? 弾けますか?1
TTITLE16=マイナー・スケールて? 弾けますか?2
TTITLE17=メシ?ャー・スケールの3ノート・ハ?ー・ストリンク?1
TTITLE18=メシ?ャー・スケールの3ノート・ハ?ー・ストリンク?2
TTITLE19=マイナー・スケールの3ノート・ハ?ー・ストリンク?1
TTITLE20=マイナー・スケールの3ノート・ハ?ー・ストリンク?2
TTITLE21=メシ?ャー・ヘ?ンタ+2音て?弾けますか?
TTITLE22=マイナー・ヘ?ンタ+2音て?弾けますか?
TTITLE23=ヘ?ンタトニックの弾き分けか?て?きますか?1
TTITLE24=ヘ?ンタトニックの弾き分けか?て?きますか?2
TTITLE25=ト?リアン・スケールて?弾けますか?
TTITLE26=フリシ?アン・スケールて?弾けますか?
TTITLE27=リテ?ィアン・スケールて?弾けますか?
TTITLE28=ミクソリテ?ィアン・スケールて?弾けますか?
TTITLE29=ミクソリテ?ィアンを平行移動て?弾けますか?
TTITLE30=メロテ?ィック・マイナーは弾けますか?
TTITLE31=ハーモニック・マイナーは弾けますか?
TTITLE32=オルタート?・スケールて?シ?ャシ?ィに!
TTITLE33=オルタート?・スケールて?ファンキーに!
TTITLE34=裏コート?にリテ?ィアン♭7th スケールを!
TTITLE35=リテ?ィアン♭7th スケールを平行移動!
TTITLE36=テ?ィミニッシュ・スケールて?弾けますか?
TTITLE37=コンテ?ィミ・スケールて?弾けますか?
TTITLE38=ホールトーン・スケールて? 弾けますか?
TTITLE39=3度のインターハ?ルて? 弾けますか?
TTITLE40=6度のインターハ?ルて? 弾けますか?
TTITLE41=スケールをオクターフ?奏法て?弾けますか?
TTITLE42=ヘ?ンタの弾き分けて?ト?リアンか?弾けますか?
TTITLE43=ヘ?ンタを利用したオルタート?・フレーズ
TTITLE44=レカ?ート奏法て?速弾きか?て?きますか?
TTITLE45=タッヒ?ンク?奏法て?速弾きか?て?きますか?
TTITLE46=合間にコート?を挿入してスケールか?弾けますか?
TTITLE47=ヘ?ンタを使い分けつつ3コート?にフィットさせる!
TTITLE48=ヘ?ンタに3rd を追加して弾けますか?1
TTITLE49=ヘ?ンタに3rd を追加して弾けますか?2
TTITLE50=“少し長め”の練習用ハ?ック・トラック:シャッフル・フ?ルース
TTITLE51=“少し長め”の練習用ハ?ック・トラック:8ヒ?ート・ホ?ッフ?ス風フ?ルース
TTITLE52=“少し長め”の練習用ハ?ック・トラック:16ヒ?ート・ファンク風フ?ルース
EXTD=YEAR: 2014
EXTT0=
EXTT1=
EXTT2=
EXTT3=
EXTT4=
EXTT5=
EXTT6=
EXTT7=
EXTT8=
EXTT9=
EXTT10=
EXTT11=
EXTT12=
EXTT13=
EXTT14=
EXTT15=
EXTT16=
EXTT17=
EXTT18=
EXTT19=
EXTT20=
EXTT21=
EXTT22=
EXTT23=
EXTT24=
EXTT25=
EXTT26=
EXTT27=
EXTT28=
EXTT29=
EXTT30=
EXTT31=
EXTT32=
EXTT33=
EXTT34=
EXTT35=
EXTT36=
EXTT37=
EXTT38=
EXTT39=
EXTT40=
EXTT41=
EXTT42=
EXTT43=
EXTT44=
EXTT45=
EXTT46=
EXTT47=
EXTT48=
EXTT49=
EXTT50=
EXTT51=
EXTT52=
PLAYORDER=
